<?xml version="1.0" encoding="iso-8859-1"?>
<!-- Generator: Adobe Illustrator 16.0.0, SVG Export Plug-In . SVG Version: 6.00 Build 0)  -->
<!DOCTYPE svg PUBLIC "-//W3C//DTD SVG 1.1//EN" "http://www.w3.org/Graphics/SVG/1.1/DTD/svg11.dtd">
<svg version="1.1" id="Capa_1" xmlns="http://www.w3.org/2000/svg" xmlns:xlink="http://www.w3.org/1999/xlink" x="0px" y="0px"
	 width="612px" height="612px" viewBox="0 0 612 612" style="enable-background:new 0 0 612 612;" xml:space="preserve">
<g>
	<g id="multi_photos">
		<g>
			<path d="M567.22,22.391H208.976c-24.689,0-44.78,20.092-44.78,44.781v358.245c0,24.688,20.091,44.779,44.78,44.779H567.22
				c24.688,0,44.78-20.092,44.78-44.779V67.171C612,42.482,591.908,22.391,567.22,22.391z M582.146,425.416
				c0,8.238-6.702,14.926-14.927,14.926H208.976c-8.225,0-14.927-6.688-14.927-14.926V67.171c0-8.24,6.702-14.927,14.927-14.927
				H567.22c8.225,0,14.927,6.687,14.927,14.927V425.416z M298.537,544.83c0,8.238-6.702,14.926-14.927,14.926H44.78
				c-8.225,0-14.927-6.688-14.927-14.926V306c0-8.239,6.702-14.926,14.927-14.926h89.561V261.22H44.78
				C20.091,261.22,0,281.312,0,306v238.83c0,24.689,20.091,44.779,44.78,44.779h238.83c24.689,0,44.781-20.09,44.781-44.779v-44.781
				h-29.854V544.83z" fill="rgba(255, 255, 255, 0.2)" />
		</g>
	</g>
</g>
<g>
</g>
<g>
</g>
<g>
</g>
<g>
</g>
<g>
</g>
<g>
</g>
<g>
</g>
<g>
</g>
<g>
</g>
<g>
</g>
<g>
</g>
<g>
</g>
<g>
</g>
<g>
</g>
<g>
</g>
</svg>
